<?xml version="1.0" encoding="utf-8" standalone="yes"?>
<!DOCTYPE svg PUBLIC "-//W3C//DTD SVG 1.1//EN" "http://www.w3.org/Graphics/SVG/1.1/DTD/svg11.dtd">
<svg style="fill:none;stroke:none;fill-rule:evenodd;clip-rule:evenodd;stroke-linecap:round;stroke-linejoin:round;stroke-miterlimit:1.5;" version="1.1" xmlns="http://www.w3.org/2000/svg" xmlns:xlink="http://www.w3.org/1999/xlink" width="744" height="696" viewBox="0 0 744 696"><style class="text-font-style fontImports" data-font-family="Roboto">@import url(https://fonts.googleapis.com/css2?family=Roboto:wght@400;700&amp;amp;display=block);</style><rect id="" x="0" y="0" width="744" height="696" style="fill: #2c2c2c;"></rect><g id="items" style="isolation: isolate"><g id="blend" style="mix-blend-mode: normal"><g id="g-root-tf_v6qct2trlp1o-fill" data-item-order="-776736"><g id="tf_v6qct2trlp1o-fill-merged" stroke="none" fill="#2c2c2c" fill-opacity="1"><g><path d="M0 0 H744 V696 H0 V0"></path></g></g></g><g id="g-root-cp_-1_lines_18lxpp2trrcap-fill" data-item-order="-417591" transform="translate(362, 158)"></g><g id="g-root-cp_1_g-1_mfgo5ytrrbii-fill" data-item-order="-417588" transform="translate(350, 134)"><g id="cp_1_g-1_mfgo5ytrrbii-fill-merged" stroke="none" fill="#3e4e69" fill-opacity="1"><g><path d="M16 22C16 25.314 18.686 28 22 28C25.314 28 28 25.314 28 22C28 18.686 25.314 16 22 16C18.686 16 16 18.686 16 22"></path></g></g></g><g id="g-root-cp_2_g-2_9405smtrrd3f-fill" data-item-order="-417580" transform="translate(314, 182)"><g id="cp_2_g-2_9405smtrrd3f-fill-merged" stroke="none" fill="#344e57" fill-opacity="1"><g><path d="M52 22C52 25.314 54.686 28 58 28C61.314 28 64 25.314 64 22C64 18.686 61.314 16 58 16C54.686 16 52 18.686 52 22"></path></g></g></g><g id="g-root-cp_3_g-3_1qegod2trrc3o-fill" data-item-order="-417572" transform="translate(350, 230)"><g id="cp_3_g-3_1qegod2trrc3o-fill-merged" stroke="none" fill="#3b5649" fill-opacity="1"><g><path d="M16 22C16 25.314 18.686 28 22 28C25.314 28 28 25.314 28 22C28 18.686 25.314 16 22 16C18.686 16 16 18.686 16 22"></path></g></g></g><g id="g-root-cp_4_g-4_1d305zqtrrdol-fill" data-item-order="-417564" transform="translate(314, 278)"><g id="cp_4_g-4_1d305zqtrrdol-fill-merged" stroke="none" fill="#4b533a" fill-opacity="1"><g><path d="M52 22C52 25.314 54.686 28 58 28C61.314 28 64 25.314 64 22C64 18.686 61.314 16 58 16C54.686 16 52 18.686 52 22"></path></g></g></g><g id="g-root-cp_5_g-5_qwj4gmtrrcwe-fill" data-item-order="-417556" transform="translate(350, 326)"><g id="cp_5_g-5_qwj4gmtrrcwe-fill-merged" stroke="none" fill="#54502f" fill-opacity="1"><g><path d="M16 22C16 25.314 18.686 28 22 28C25.314 28 28 25.314 28 22C28 18.686 25.314 16 22 16C18.686 16 16 18.686 16 22"></path></g></g></g><g id="g-root-cp_6_g-6_qwj4gmtrrcwf-fill" data-item-order="-417548" transform="translate(314, 374)"><g id="cp_6_g-6_qwj4gmtrrcwf-fill-merged" stroke="none" fill="#5c4938" fill-opacity="1"><g><path d="M52 22C52 25.314 54.686 28 58 28C61.314 28 64 25.314 64 22C64 18.686 61.314 16 58 16C54.686 16 52 18.686 52 22"></path></g></g></g><g id="g-root-cp_7_g-7_8vvzo6trsqo8-fill" data-item-order="-417540" transform="translate(350, 422)"><g id="cp_7_g-7_8vvzo6trsqo8-fill-merged" stroke="none" fill="#68403f" fill-opacity="1"><g><path d="M16 22C16 25.314 18.686 28 22 28C25.314 28 28 25.314 28 22C28 18.686 25.314 16 22 16C18.686 16 16 18.686 16 22"></path></g></g></g><g id="g-root-cp_8_g-8_1uljj9ytrss21-fill" data-item-order="-417532" transform="translate(314, 470)"><g id="cp_8_g-8_1uljj9ytrss21-fill-merged" stroke="none" fill="#69425a" fill-opacity="1"><g><path d="M52 22C52 25.314 54.686 28 58 28C61.314 28 64 25.314 64 22C64 18.686 61.314 16 58 16C54.686 16 52 18.686 52 22"></path></g></g></g><g id="g-root-cp_9_g-9_1haphzqtrsqh6-fill" data-item-order="-417524" transform="translate(350, 518)"><g id="cp_9_g-9_1haphzqtrsqh6-fill-merged" stroke="none" fill="#60436d" fill-opacity="1"><g><path d="M16 22C16 25.314 18.686 28 22 28C25.314 28 28 25.314 28 22C28 18.686 25.314 16 22 16C18.686 16 16 18.686 16 22"></path></g></g></g><g id="g-root-cp_10_g-10_1cuvzvatrsr9f-fill" data-item-order="-417516" transform="translate(314, 566)"><g id="cp_10_g-10_1cuvzvatrsr9f-fill-merged" stroke="none" fill="#4c4371" fill-opacity="1"><g><path d="M52 22C52 25.314 54.686 28 58 28C61.314 28 64 25.314 64 22C64 18.686 61.314 16 58 16C54.686 16 52 18.686 52 22"></path></g></g></g><g id="g-root-ic_3d_145htnatrbwgb-fill" data-item-order="0" transform="translate(422, 218)"></g><g id="g-root-tx_dockerco_v8lv86trbvup-fill" data-item-order="0" transform="translate(482, 218)"><g id="tx_dockerco_v8lv86trbvup-fill-merged" stroke="none" fill="#43dd93" fill-opacity="1"><g><text style="font: 20px &quot;Roboto&quot;, sans-serif; white-space: pre;" transform="translate(10, 22)" font-size="20px" font-family="'Roboto', sans-serif"><tspan x="2" y="12" dominant-baseline="ideographic">docker-compose.yml</tspan></text></g></g></g><g id="g-root-tx_envexamp_zpobiutreosu-fill" data-item-order="0" transform="translate(110, 266)"><g id="tx_envexamp_zpobiutreosu-fill-merged" stroke="none" fill="#a6da37" fill-opacity="1"><g><text style="font: 20px &quot;Roboto&quot;, sans-serif; white-space: pre;" transform="translate(142, 22)" font-size="20px" font-family="'Roboto', sans-serif"><tspan x="-118.47" y="12" dominant-baseline="ideographic">.env.example</tspan></text></g></g></g><g id="g-root-ic_bull_4nk9qutrepl4-fill" data-item-order="0" transform="translate(254, 266)"></g><g id="g-root-tx_dependnc_4o6no6trvjlw-fill" data-item-order="0" transform="translate(86, 206)"><g id="tx_dependnc_4o6no6trvjlw-fill-merged" stroke="none" fill="#f4f4f4" fill-opacity="1"><g><text style="font: 15px &quot;Roboto&quot;, sans-serif; white-space: pre;" transform="translate(166, 22)" font-size="15px" font-family="'Roboto', sans-serif"><tspan x="-146.95" y="9" dominant-baseline="ideographic">Dependências Python</tspan></text></g></g></g><g id="g-root-tx_ambiente_1qbyv6etrbx8i-fill" data-item-order="0" transform="translate(482, 254)"><g id="tx_ambiente_1qbyv6etrbx8i-fill-merged" stroke="none" fill="#f4f4f4" fill-opacity="1"><g><text style="font: 15px &quot;Roboto&quot;, sans-serif; white-space: pre;" transform="translate(10, 22)" font-size="15px" font-family="'Roboto', sans-serif"><tspan x="2" y="9" dominant-baseline="ideographic">Ambiente Neo4j</tspan></text></g></g></g><g id="g-root-tx_template_me7t5itreqdr-fill" data-item-order="0" transform="translate(86, 302)"><g id="tx_template_me7t5itreqdr-fill-merged" stroke="none" fill="#f4f4f4" fill-opacity="1"><g><text style="font: 15px &quot;Roboto&quot;, sans-serif; white-space: pre;" transform="translate(166, 22)" font-size="15px" font-family="'Roboto', sans-serif"><tspan x="-146.88" y="9" dominant-baseline="ideographic">Template de variáveis</tspan></text></g></g></g><g id="g-root-tx_instrues_v5hemutrsrv2-fill" data-item-order="0" transform="translate(482, 158)"><g id="tx_instrues_v5hemutrsrv2-fill-merged" stroke="none" fill="#f4f4f4" fill-opacity="1"><g><text style="font: 15px &quot;Roboto&quot;, sans-serif; white-space: pre;" transform="translate(10, 22)" font-size="15px" font-family="'Roboto', sans-serif"><tspan x="2" y="9" dominant-baseline="ideographic">Instruções passo a passo</tspan></text></g></g></g><g id="g-root-ic_2_13zvjvatrhjb7-fill" data-item-order="0" transform="translate(422, 314)"></g><g id="g-root-tx_datadocu_m7cl7atrhji9-fill" data-item-order="0" transform="translate(482, 314)"><g id="tx_datadocu_m7cl7atrhji9-fill-merged" stroke="none" fill="#ffe711" fill-opacity="1"><g><text style="font: 20px &quot;Roboto&quot;, sans-serif; white-space: pre;" transform="translate(10, 22)" font-size="20px" font-family="'Roboto', sans-serif"><tspan x="2" y="12" dominant-baseline="ideographic">data/documentation/</tspan></text></g></g></g><g id="g-root-ic_leve_1ut1bh2trhhq8-fill" data-item-order="0" transform="translate(254, 362)"></g><g id="g-root-ic_2_1hi7712trvlsd-fill" data-item-order="0" transform="translate(254, 170)"></g><g id="g-root-tx_pdfsorig_1lqj39ytrhk3u-fill" data-item-order="0" transform="translate(482, 350)"><g id="tx_pdfsorig_1lqj39ytrhk3u-fill-merged" stroke="none" fill="#f4f4f4" fill-opacity="1"><g><text style="font: 15px &quot;Roboto&quot;, sans-serif; white-space: pre;" transform="translate(10, 22)" font-size="15px" font-family="'Roboto', sans-serif"><tspan x="2" y="9" dominant-baseline="ideographic">PDFs originais</tspan></text></g></g></g><g id="g-root-tx_datagold_v98cbatrhjim-fill" data-item-order="0" transform="translate(26, 362)"><g id="tx_datagold_v98cbatrhjim-fill-merged" stroke="none" fill="#f79438" fill-opacity="1"><g><text style="font: 20px &quot;Roboto&quot;, sans-serif; white-space: pre;" transform="translate(226, 34)" font-size="20px" font-family="'Roboto', sans-serif"><tspan x="-49.85" y="0" dominant-baseline="ideographic">data/</tspan><tspan x="-211.27" y="24" dominant-baseline="ideographic">golden_dataset_v1.json</tspan></text></g></g></g><g id="g-root-ic_arro_1ltngpitriyo3-fill" data-item-order="0" transform="translate(422, 410)"></g><g id="g-root-tx_datasetd_dikswmtrhipz-fill" data-item-order="0" transform="translate(122, 422)"><g id="tx_datasetd_dikswmtrhipz-fill-merged" stroke="none" fill="#f4f4f4" fill-opacity="1"><g><text style="font: 15px &quot;Roboto&quot;, sans-serif; white-space: pre;" transform="translate(130, 22)" font-size="15px" font-family="'Roboto', sans-serif"><tspan x="-112.65" y="9" dominant-baseline="ideographic">Dataset dourado</tspan></text></g></g></g><g id="g-root-tx_requirem_meu72utrvkej-fill" data-item-order="0" transform="translate(86, 170)"><g id="tx_requirem_meu72utrvkej-fill-merged" stroke="none" fill="#1ac3fb" fill-opacity="1"><g><text style="font: 20px &quot;Roboto&quot;, sans-serif; white-space: pre;" transform="translate(166, 22)" font-size="20px" font-family="'Roboto', sans-serif"><tspan x="-148" y="12" dominant-baseline="ideographic">requirements.txt</tspan></text></g></g></g><g id="g-root-tx_scriptsi_141qz4mtrivpd-fill" data-item-order="0" transform="translate(482, 410)"><g id="tx_scriptsi_141qz4mtrivpd-fill-merged" stroke="none" fill="#fb6762" fill-opacity="1"><g><text style="font: 20px &quot;Roboto&quot;, sans-serif; white-space: pre;" transform="translate(10, 22)" font-size="20px" font-family="'Roboto', sans-serif"><tspan x="2" y="12" dominant-baseline="ideographic">scripts/ingest_vector.py</tspan></text></g></g></g><g id="g-root-tx_scriptsi_v5hhsmtrkd1o-fill" data-item-order="0" transform="translate(26, 458)"><g id="tx_scriptsi_v5hhsmtrkd1o-fill-merged" stroke="none" fill="#f366bb" fill-opacity="1"><g><text style="font: 20px &quot;Roboto&quot;, sans-serif; white-space: pre;" transform="translate(226, 22)" font-size="20px" font-family="'Roboto', sans-serif"><tspan x="-211.02" y="12" dominant-baseline="ideographic">scripts/ingest_graph.py</tspan></text></g></g></g><g id="g-root-ic_colu_1ltngpitrkc1y-fill" data-item-order="0" transform="translate(254, 458)"></g><g id="g-root-tx_readmemd_1lrryaetrsrv1-fill" data-item-order="0" transform="translate(482, 122)"><g id="tx_readmemd_1lrryaetrsrv1-fill-merged" stroke="none" fill="#4f91fc" fill-opacity="1"><g><text style="font: 20px &quot;Roboto&quot;, sans-serif; white-space: pre;" transform="translate(10, 22)" font-size="20px" font-family="'Roboto', sans-serif"><tspan x="2" y="12" dominant-baseline="ideographic">README.md</tspan></text></g></g></g><g id="g-root-tx_ingestov_4jtf86triwi2-fill" data-item-order="0" transform="translate(482, 446)"><g id="tx_ingestov_4jtf86triwi2-fill-merged" stroke="none" fill="#f4f4f4" fill-opacity="1"><g><text style="font: 15px &quot;Roboto&quot;, sans-serif; white-space: pre;" transform="translate(10, 22)" font-size="15px" font-family="'Roboto', sans-serif"><tspan x="2" y="9" dominant-baseline="ideographic">Ingestão vetorial</tspan></text></g></g></g><g id="g-root-tx_ingestog_4j6y52trkd1p-fill" data-item-order="0" transform="translate(122, 494)"><g id="tx_ingestog_4j6y52trkd1p-fill-merged" stroke="none" fill="#f4f4f4" fill-opacity="1"><g><text style="font: 15px &quot;Roboto&quot;, sans-serif; white-space: pre;" transform="translate(130, 22)" font-size="15px" font-family="'Roboto', sans-serif"><tspan x="-109.52" y="9" dominant-baseline="ideographic">Ingestão gráfica</tspan></text></g></g></g><g id="g-root-tx_anlisede_18n6r12trlqff-fill" data-item-order="0" transform="translate(86, 614)"><g id="tx_anlisede_18n6r12trlqff-fill-merged" stroke="none" fill="#f4f4f4" fill-opacity="1"><g><text style="font: 15px &quot;Roboto&quot;, sans-serif; white-space: pre;" transform="translate(166, 22)" font-size="15px" font-family="'Roboto', sans-serif"><tspan x="-145.48" y="9" dominant-baseline="ideographic">Análise de resultados</tspan></text></g></g></g><g id="g-root-ic_expe_4hxzyutrlp1d-fill" data-item-order="0" transform="translate(422, 506)"></g><g id="g-root-tx_scriptsr_1cuw312trlptz-fill" data-item-order="0" transform="translate(482, 506)"><g id="tx_scriptsr_1cuw312trlptz-fill-merged" stroke="none" fill="#cb68f9" fill-opacity="1"><g><text style="font: 20px &quot;Roboto&quot;, sans-serif; white-space: pre;" transform="translate(10, 34)" font-size="20px" font-family="'Roboto', sans-serif"><tspan x="2" y="0" dominant-baseline="ideographic">scripts/</tspan><tspan x="2" y="24" dominant-baseline="ideographic">run_experiment.py</tspan></text></g></g></g><g id="g-root-ic_net_qwj7metrlpms-fill" data-item-order="0" transform="translate(254, 554)"></g><g id="g-root-tx_scriptsa_8d8pitrlqmi-fill" data-item-order="0" transform="translate(74, 554)"><g id="tx_scriptsa_8d8pitrlqmi-fill-merged" stroke="none" fill="#8769fd" fill-opacity="1"><g><text style="font: 20px &quot;Roboto&quot;, sans-serif; white-space: pre;" transform="translate(178, 34)" font-size="20px" font-family="'Roboto', sans-serif"><tspan x="-70.78" y="0" dominant-baseline="ideographic">scripts/</tspan><tspan x="-164.67" y="24" dominant-baseline="ideographic">analyze_results.py</tspan></text></g></g></g><g id="g-root-tx_fluxodet_24eomtrsqh8-fill" data-item-order="0" transform="translate(104, 38)"><g id="tx_fluxodet_24eomtrsqh8-fill-merged" stroke="none" fill="#f4f4f4" fill-opacity="1"><g><text style="font: bold 25px &quot;Roboto&quot;, sans-serif; white-space: pre;" transform="translate(268, 28)" font-weight="bold" font-size="25px" font-family="'Roboto', sans-serif"><tspan x="-253.03" y="15" dominant-baseline="ideographic">Fluxo de Trabalho do Projeto do Início ao Fim</tspan></text></g></g></g><g id="g-root-tx_execuodo_m8ljditrlpu0-fill" data-item-order="0" transform="translate(482, 566)"><g id="tx_execuodo_m8ljditrlpu0-fill-merged" stroke="none" fill="#f4f4f4" fill-opacity="1"><g><text style="font: 15px &quot;Roboto&quot;, sans-serif; white-space: pre;" transform="translate(10, 22)" font-size="15px" font-family="'Roboto', sans-serif"><tspan x="2" y="9" dominant-baseline="ideographic">Execução do experimento</tspan></text></g></g></g><g id="g-root-ic_info_detv86trsr2f-fill" data-item-order="0" transform="translate(422, 122)"></g><g id="g-root-tf_v6qct2trlp1o-stroke" data-item-order="-776736"></g><g id="g-root-cp_-1_lines_18lxpp2trrcap-stroke" data-item-order="-417591" transform="translate(362, 158)"><g id="cp_-1_lines_18lxpp2trrcap-stroke" fill="none" stroke-linecap="round" stroke-linejoin="round" stroke-miterlimit="4" stroke="#b7b7b7" stroke-width="2" stroke-opacity="1"><g><path d="M 10 10L 10 34M 10 58L 10 82M 10 106L 10 130M 10 154L 10 178M 10 202L 10 226M 10 250L 10 274M 10 298L 10 322M 10 346L 10 370M 10 394L 10 418"></path></g></g></g><g id="g-root-cp_1_g-1_mfgo5ytrrbii-stroke" data-item-order="-417588" transform="translate(350, 134)"><g id="cp_1_g-1_mfgo5ytrrbii-stroke" fill="none" stroke-linecap="round" stroke-linejoin="round" stroke-miterlimit="4" stroke="#4f91fc" stroke-width="2" stroke-opacity="1"><g><path d="M 16 22C 16 25.313709 18.686292 28 22 28C 25.313709 28 28 25.313709 28 22C 28 18.686292 25.313709 16 22 16C 18.686292 16 16 18.686292 16 22"></path></g></g><g id="cp_1_g-1_mfgo5ytrrbii-stroke" fill="none" stroke-linecap="round" stroke-linejoin="round" stroke-miterlimit="4" stroke="#4f91fc" stroke-width="2" stroke-opacity="1"><g><path d="M 10 22C 10 28.627417 15.372583 34 22 34C 28.627417 34 34 28.627417 34 22C 34 15.372583 28.627417 10 22 10C 15.372583 10 10 15.372583 10 22M 34 22L 70 22"></path></g></g></g><g id="g-root-cp_2_g-2_9405smtrrd3f-stroke" data-item-order="-417580" transform="translate(314, 182)"><g id="cp_2_g-2_9405smtrrd3f-stroke" fill="none" stroke-linecap="round" stroke-linejoin="round" stroke-miterlimit="4" stroke="#1ac3fb" stroke-width="2" stroke-opacity="1"><g><path d="M 52 22C 52 25.3137 54.6863 28 58 28C 61.3137 28 64 25.3137 64 22C 64 18.6863 61.3137 16 58 16C 54.6863 16 52 18.6863 52 22ZM 46 22C 46 28.6274 51.3726 34 58 34C 64.6274 34 70 28.6274 70 22C 70 15.3726 64.6274 10 58 10C 51.3726 10 46 15.3726 46 22ZM 46 22L 10 22"></path></g></g></g><g id="g-root-cp_3_g-3_1qegod2trrc3o-stroke" data-item-order="-417572" transform="translate(350, 230)"><g id="cp_3_g-3_1qegod2trrc3o-stroke" fill="none" stroke-linecap="round" stroke-linejoin="round" stroke-miterlimit="4" stroke="#43dd93" stroke-width="2" stroke-opacity="1"><g><path d="M 16 22C 16 25.313709 18.686292 28 22 28C 25.313709 28 28 25.313709 28 22C 28 18.686292 25.313709 16 22 16C 18.686292 16 16 18.686292 16 22"></path></g></g><g id="cp_3_g-3_1qegod2trrc3o-stroke" fill="none" stroke-linecap="round" stroke-linejoin="round" stroke-miterlimit="4" stroke="#43dd93" stroke-width="2" stroke-opacity="1"><g><path d="M 10 22C 10 28.627417 15.372583 34 22 34C 28.627417 34 34 28.627417 34 22C 34 15.372583 28.627417 10 22 10C 15.372583 10 10 15.372583 10 22M 34 22L 70 22"></path></g></g></g><g id="g-root-cp_4_g-4_1d305zqtrrdol-stroke" data-item-order="-417564" transform="translate(314, 278)"><g id="cp_4_g-4_1d305zqtrrdol-stroke" fill="none" stroke-linecap="round" stroke-linejoin="round" stroke-miterlimit="4" stroke="#a6da37" stroke-width="2" stroke-opacity="1"><g><path d="M 52 22C 52 25.3137 54.6863 28 58 28C 61.3137 28 64 25.3137 64 22C 64 18.6863 61.3137 16 58 16C 54.6863 16 52 18.6863 52 22ZM 46 22C 46 28.6274 51.3726 34 58 34C 64.6274 34 70 28.6274 70 22C 70 15.3726 64.6274 10 58 10C 51.3726 10 46 15.3726 46 22ZM 46 22L 10 22"></path></g></g></g><g id="g-root-cp_5_g-5_qwj4gmtrrcwe-stroke" data-item-order="-417556" transform="translate(350, 326)"><g id="cp_5_g-5_qwj4gmtrrcwe-stroke" fill="none" stroke-linecap="round" stroke-linejoin="round" stroke-miterlimit="4" stroke="#ffe711" stroke-width="2" stroke-opacity="1"><g><path d="M 16 22C 16 25.313709 18.686292 28 22 28C 25.313709 28 28 25.313709 28 22C 28 18.686292 25.313709 16 22 16C 18.686292 16 16 18.686292 16 22"></path></g></g><g id="cp_5_g-5_qwj4gmtrrcwe-stroke" fill="none" stroke-linecap="round" stroke-linejoin="round" stroke-miterlimit="4" stroke="#ffe711" stroke-width="2" stroke-opacity="1"><g><path d="M 10 22C 10 28.627417 15.372583 34 22 34C 28.627417 34 34 28.627417 34 22C 34 15.372583 28.627417 10 22 10C 15.372583 10 10 15.372583 10 22M 34 22L 70 22"></path></g></g></g><g id="g-root-cp_6_g-6_qwj4gmtrrcwf-stroke" data-item-order="-417548" transform="translate(314, 374)"><g id="cp_6_g-6_qwj4gmtrrcwf-stroke" fill="none" stroke-linecap="round" stroke-linejoin="round" stroke-miterlimit="4" stroke="#f79438" stroke-width="2" stroke-opacity="1"><g><path d="M 52 22C 52 25.3137 54.6863 28 58 28C 61.3137 28 64 25.3137 64 22C 64 18.6863 61.3137 16 58 16C 54.6863 16 52 18.6863 52 22ZM 46 22C 46 28.6274 51.3726 34 58 34C 64.6274 34 70 28.6274 70 22C 70 15.3726 64.6274 10 58 10C 51.3726 10 46 15.3726 46 22ZM 46 22L 10 22"></path></g></g></g><g id="g-root-cp_7_g-7_8vvzo6trsqo8-stroke" data-item-order="-417540" transform="translate(350, 422)"><g id="cp_7_g-7_8vvzo6trsqo8-stroke" fill="none" stroke-linecap="round" stroke-linejoin="round" stroke-miterlimit="4" stroke="#fb6762" stroke-width="2" stroke-opacity="1"><g><path d="M 16 22C 16 25.313709 18.686292 28 22 28C 25.313709 28 28 25.313709 28 22C 28 18.686292 25.313709 16 22 16C 18.686292 16 16 18.686292 16 22"></path></g></g><g id="cp_7_g-7_8vvzo6trsqo8-stroke" fill="none" stroke-linecap="round" stroke-linejoin="round" stroke-miterlimit="4" stroke="#fb6762" stroke-width="2" stroke-opacity="1"><g><path d="M 10 22C 10 28.627417 15.372583 34 22 34C 28.627417 34 34 28.627417 34 22C 34 15.372583 28.627417 10 22 10C 15.372583 10 10 15.372583 10 22M 34 22L 70 22"></path></g></g></g><g id="g-root-cp_8_g-8_1uljj9ytrss21-stroke" data-item-order="-417532" transform="translate(314, 470)"><g id="cp_8_g-8_1uljj9ytrss21-stroke" fill="none" stroke-linecap="round" stroke-linejoin="round" stroke-miterlimit="4" stroke="#f366bb" stroke-width="2" stroke-opacity="1"><g><path d="M 52 22C 52 25.3137 54.6863 28 58 28C 61.3137 28 64 25.3137 64 22C 64 18.6863 61.3137 16 58 16C 54.6863 16 52 18.6863 52 22ZM 46 22C 46 28.6274 51.3726 34 58 34C 64.6274 34 70 28.6274 70 22C 70 15.3726 64.6274 10 58 10C 51.3726 10 46 15.3726 46 22ZM 46 22L 10 22"></path></g></g></g><g id="g-root-cp_9_g-9_1haphzqtrsqh6-stroke" data-item-order="-417524" transform="translate(350, 518)"><g id="cp_9_g-9_1haphzqtrsqh6-stroke" fill="none" stroke-linecap="round" stroke-linejoin="round" stroke-miterlimit="4" stroke="#cb68f9" stroke-width="2" stroke-opacity="1"><g><path d="M 16 22C 16 25.313709 18.686292 28 22 28C 25.313709 28 28 25.313709 28 22C 28 18.686292 25.313709 16 22 16C 18.686292 16 16 18.686292 16 22"></path></g></g><g id="cp_9_g-9_1haphzqtrsqh6-stroke" fill="none" stroke-linecap="round" stroke-linejoin="round" stroke-miterlimit="4" stroke="#cb68f9" stroke-width="2" stroke-opacity="1"><g><path d="M 10 22C 10 28.627417 15.372583 34 22 34C 28.627417 34 34 28.627417 34 22C 34 15.372583 28.627417 10 22 10C 15.372583 10 10 15.372583 10 22M 34 22L 70 22"></path></g></g></g><g id="g-root-cp_10_g-10_1cuvzvatrsr9f-stroke" data-item-order="-417516" transform="translate(314, 566)"><g id="cp_10_g-10_1cuvzvatrsr9f-stroke" fill="none" stroke-linecap="round" stroke-linejoin="round" stroke-miterlimit="4" stroke="#8769fd" stroke-width="2" stroke-opacity="1"><g><path d="M 52 22C 52 25.3137 54.6863 28 58 28C 61.3137 28 64 25.3137 64 22C 64 18.6863 61.3137 16 58 16C 54.6863 16 52 18.6863 52 22ZM 46 22C 46 28.6274 51.3726 34 58 34C 64.6274 34 70 28.6274 70 22C 70 15.3726 64.6274 10 58 10C 51.3726 10 46 15.3726 46 22ZM 46 22L 10 22"></path></g></g></g><g id="g-root-ic_3d_145htnatrbwgb-stroke" data-item-order="0" transform="translate(422, 218)"><g id="ic_3d_145htnatrbwgb-stroke" fill="none" stroke-linecap="round" stroke-linejoin="round" stroke-miterlimit="4" stroke="#43dd93" stroke-width="2" stroke-opacity="1"><g><path d="M 10 10M 25.11718 32.740997L 33.998802 27.91114L 42.880402 32.740997M 10 10M 13.773439 48.5788L 25.207279 42.360802M 54.2244 48.5788L 42.7906 42.360802M 29.40624 19.9121L 34 15.31738L 38.594803 19.9121M 10 10M 20.002579 50.385201L 13.726561 48.704399L 15.40834 42.427799M 10 10M 47.997398 50.385201L 54.273399 48.704399L 52.591599 42.427799M 34 15.60938L 34 27.911381M 10 10M 34 47.2486L 25.123161 42.418598L 25.123161 32.741199L 34 37.570999L 34 47.2486ZM 10 10M 34 47.2486L 42.876801 42.418598L 42.876801 32.741199L 34 37.570999L 34 47.2486Z"></path></g></g></g><g id="g-root-tx_dockerco_v8lv86trbvup-stroke" data-item-order="0" transform="translate(482, 218)"></g><g id="g-root-tx_envexamp_zpobiutreosu-stroke" data-item-order="0" transform="translate(110, 266)"></g><g id="g-root-ic_bull_4nk9qutrepl4-stroke" data-item-order="0" transform="translate(254, 266)"><g id="ic_bull_4nk9qutrepl4-stroke" fill="none" stroke-linecap="round" stroke-linejoin="round" stroke-miterlimit="4" stroke="#a6da37" stroke-width="2" stroke-opacity="1"><g><path d="M 14 22C 14 24.761425 16.238577 27 19 27C 21.761425 27 24 24.761425 24 22C 24 19.238577 21.761425 17 19 17C 16.238577 17 14 19.238577 14 22ZM 30 17L 54 17M 30 21L 44 21M 30 25L 48 25M 30 36C 30 37.656853 31.343147 39 33 39C 34.656853 39 36 37.656853 36 36C 36 34.343147 34.656853 33 33 33C 31.343147 33 30 34.343147 30 36ZM 40 33L 55 33M 40 37L 48 37M 30 48C 30 49.656857 31.343147 51 33 51C 34.656853 51 36 49.656857 36 48C 36 46.343147 34.656853 45 33 45C 31.343147 45 30 46.343147 30 48ZM 40 45L 55 45M 40 49L 48 49M 24 31L 24 33M 24 37L 24 39M 24 43L 24 45M 24 49L 24 51"></path></g></g></g><g id="g-root-tx_dependnc_4o6no6trvjlw-stroke" data-item-order="0" transform="translate(86, 206)"></g><g id="g-root-tx_ambiente_1qbyv6etrbx8i-stroke" data-item-order="0" transform="translate(482, 254)"></g><g id="g-root-tx_template_me7t5itreqdr-stroke" data-item-order="0" transform="translate(86, 302)"></g><g id="g-root-tx_instrues_v5hemutrsrv2-stroke" data-item-order="0" transform="translate(482, 158)"></g><g id="g-root-ic_2_13zvjvatrhjb7-stroke" data-item-order="0" transform="translate(422, 314)"><g id="ic_2_13zvjvatrhjb7-stroke" fill="none" stroke-linecap="round" stroke-linejoin="round" stroke-miterlimit="4" stroke="#ffe711" stroke-width="2" stroke-opacity="1"><g><path d="M 47.799999 57C 50.00914 57 51.799999 55.209141 51.799999 53L 51.799999 21.220001L 41.66 11L 20.200001 11C 17.99086 11 16.200001 12.790861 16.200001 15L 16.200001 52.919998C 16.200001 55.129139 17.99086 56.919998 20.200001 56.919998ZM 26.34 21.220001L 41.68 21.220001L 41.68 46.779999L 26.34 46.779999ZM 41.66 57L 41.66 46.779999L 51.880001 46.779999M 16.119999 46.779999L 26.34 46.779999L 26.34 57M 41.66 11L 41.66 21.220001L 51.880001 21.220001"></path></g></g></g><g id="g-root-tx_datadocu_m7cl7atrhji9-stroke" data-item-order="0" transform="translate(482, 314)"></g><g id="g-root-ic_leve_1ut1bh2trhhq8-stroke" data-item-order="0" transform="translate(254, 362)"><g id="ic_leve_1ut1bh2trhhq8-stroke" fill="none" stroke-linecap="round" stroke-linejoin="round" stroke-miterlimit="4" stroke="#f79438" stroke-width="2" stroke-opacity="1"><g><path d="M 49.099998 19.5C 53.186798 19.5 56.5 17.709141 56.5 15.5C 56.5 13.29086 53.186798 11.5 49.099998 11.5C 45.013 11.5 41.700001 13.29086 41.700001 15.5C 41.700001 17.709141 45.013 19.5 49.099998 19.5ZM 41.700001 15.89982L 41.700001 27.29982C 41.700001 29.499821 44.900002 31.299801 49.099998 31.299801C 53.299999 31.299801 56.5 29.499821 56.5 27.29982L 56.5 15.89982M 41.700001 21.5C 41.700001 23.700001 44.900002 25.5 49.099998 25.5C 53.299999 25.5 56.5 23.700001 56.5 21.5M 18.288181 23.5998L 11.5 23.5998L 11.5 48.489799L 18.288181 48.489799L 18.288181 23.5998ZM 31.864599 32.650803L 25.07642 32.650803L 25.07642 48.489799L 31.864599 48.489799L 31.864599 32.650803ZM 45.4408 40.570198L 38.652802 40.570198L 38.652802 48.489799L 45.4408 48.489799L 45.4408 40.570198ZM 11.5 56.5C 14.48672 56.5 17.473461 56.5 20.46018 53.5C 23.446899 56.5 26.43362 56.5 27.23008 56.5C 28.026541 56.5 31.013201 56.5 34 53.5C 36.986801 56.5 39.9734 56.5 40.77 56.5C 41.566399 56.5 44.553001 56.5 47.539799 53.5C 50.5266 56.5 53.513199 56.5 56.5 56.5"></path></g></g></g><g id="g-root-ic_2_1hi7712trvlsd-stroke" data-item-order="0" transform="translate(254, 170)"><g id="ic_2_1hi7712trvlsd-stroke" fill="none" stroke-linecap="round" stroke-linejoin="round" stroke-miterlimit="4" stroke="#1ac3fb" stroke-width="2" stroke-opacity="1"><g><path d="M 17 55L 12.98 50C 11.693836 48.408497 10.9884 46.426224 10.98 44.380001L 10.98 34C 10.979982 33.200874 11.298797 32.434765 11.865739 31.871578C 12.432681 31.30839 13.200891 30.994673 14 31L 14 31C 15.656855 31 17 32.343147 17 34L 17 41.739998M 26 55L 26 48.720001C 26.003548 46.945229 25.47401 45.210293 24.48 43.739998L 22.200001 40.299999C 21.800718 39.636154 21.145927 39.165794 20.389343 38.999344C 19.632763 38.832893 18.841024 38.98502 18.200001 39.419998L 18.200001 39.419998C 17.030144 40.206558 16.62746 41.740185 17.26 43L 20 47.5M 51 55L 55 49.959999C 56.286163 48.3685 56.9916 46.386223 57 44.34L 57 34C 57 32.343147 55.656857 31 54 31L 54 31C 52.343147 31 51 32.343147 51 34L 51 41.739998M 42 55L 42 48.720001C 41.996452 46.945229 42.52599 45.210293 43.52 43.739998L 45.799999 40.299999C 46.199284 39.636154 46.854073 39.165794 47.610657 38.999344C 48.367237 38.832893 49.158974 38.98502 49.799999 39.419998L 49.799999 39.419998C 50.969856 40.206558 51.37254 41.740185 50.740002 43L 48 47.5M 43 14L 51 22L 43 30M 27 14L 19 22L 27 30M 37 13L 33 31"></path></g></g></g><g id="g-root-tx_pdfsorig_1lqj39ytrhk3u-stroke" data-item-order="0" transform="translate(482, 350)"></g><g id="g-root-tx_datagold_v98cbatrhjim-stroke" data-item-order="0" transform="translate(26, 362)"></g><g id="g-root-ic_arro_1ltngpitriyo3-stroke" data-item-order="0" transform="translate(422, 410)"><g id="ic_arro_1ltngpitriyo3-stroke" fill="none" stroke-linecap="round" stroke-linejoin="round" stroke-miterlimit="4" stroke="#fb6762" stroke-width="2" stroke-opacity="1"><g><path d="M 10 10M 29 51L 35 57L 41 51M 35 57L 35 45C 35 43.895432 34.104568 43 33 43L 13 43C 11.895431 43 11 42.104568 11 41L 11 39C 11 37.895432 11.895431 37 13 37L 55 37C 56.104568 37 57 36.104568 57 35L 57 33C 57 31.89543 56.104568 31 55 31L 13 31C 11.895431 31 11 30.10457 11 29L 11 27C 11 25.895432 11.895431 25 13 25L 55 25C 56.104568 25 57 24.104568 57 23L 57 21C 57 19.895432 56.104568 19 55 19L 35 19C 33.895432 19 33 18.104568 33 17L 33 11"></path></g></g></g><g id="g-root-tx_datasetd_dikswmtrhipz-stroke" data-item-order="0" transform="translate(122, 422)"></g><g id="g-root-tx_requirem_meu72utrvkej-stroke" data-item-order="0" transform="translate(86, 170)"></g><g id="g-root-tx_scriptsi_141qz4mtrivpd-stroke" data-item-order="0" transform="translate(482, 410)"></g><g id="g-root-tx_scriptsi_v5hhsmtrkd1o-stroke" data-item-order="0" transform="translate(26, 458)"></g><g id="g-root-ic_colu_1ltngpitrkc1y-stroke" data-item-order="0" transform="translate(254, 458)"><g id="ic_colu_1ltngpitrkc1y-stroke" fill="none" stroke-linecap="round" stroke-linejoin="round" stroke-miterlimit="4" stroke="#f366bb" stroke-width="2" stroke-opacity="1"><g><path d="M 26.265619 14.148439C 26.265619 13.043859 25.370201 12.148439 24.265621 12.148439L 14.039061 12.148439C 12.9345 12.148439 12.039061 13.043859 12.039061 14.148439L 12.039061 24.375C 12.039061 25.479561 12.9345 26.375 14.039061 26.375L 24.265621 26.375C 25.370201 26.375 26.265619 25.479561 26.265619 24.375L 26.265619 14.148439ZM 55.359402 14.14062C 55.359402 13.03606 54.464001 12.14062 53.359402 12.14062L 43.132801 12.14062C 42.028198 12.14062 41.132797 13.03606 41.132797 14.14062L 41.132797 24.36718C 41.132797 25.47176 42.028198 26.36718 43.132801 26.36718L 53.359402 26.36718C 54.464001 26.36718 55.359402 25.47176 55.359402 24.36718L 55.359402 14.14062ZM 26.265619 43.625C 26.265619 42.520401 25.370201 41.625 24.265621 41.625L 14.039061 41.625C 12.9345 41.625 12.039061 42.520401 12.039061 43.625L 12.039061 53.851601C 12.039061 54.9562 12.9345 55.851601 14.039061 55.851601L 24.265621 55.851601C 25.370201 55.851601 26.265619 54.9562 26.265619 53.851601L 26.265619 43.625ZM 10 10M 19.15624 26.375L 19.15626 41.632797M 10 10M 48.25 26.375L 48.25 55.859402M 10 10M 41.132797 26.375L 26.06904 41.438801M 10 10M 40.539001 48.140598L 48.25 55.851601L 55.960999 48.140598"></path></g></g></g><g id="g-root-tx_readmemd_1lrryaetrsrv1-stroke" data-item-order="0" transform="translate(482, 122)"></g><g id="g-root-tx_ingestov_4jtf86triwi2-stroke" data-item-order="0" transform="translate(482, 446)"></g><g id="g-root-tx_ingestog_4j6y52trkd1p-stroke" data-item-order="0" transform="translate(122, 494)"></g><g id="g-root-tx_anlisede_18n6r12trlqff-stroke" data-item-order="0" transform="translate(86, 614)"></g><g id="g-root-ic_expe_4hxzyutrlp1d-stroke" data-item-order="0" transform="translate(422, 506)"><g id="ic_expe_4hxzyutrlp1d-stroke" fill="none" stroke-linecap="round" stroke-linejoin="round" stroke-miterlimit="4" stroke="#cb68f9" stroke-width="2" stroke-opacity="1"><g><path d="M 25 17L 13 17L 13 53M 32 15L 26 15C 25.447716 15 25 15.447716 25 16L 25 20C 25 20.552284 25.447716 21 26 21L 50 21M 45 17L 45 12C 45 11.447716 44.552284 11 44 11L 40 11C 39.447716 11 39 11.447716 39 12L 39 17M 44.919998 42.5C 44.919998 43.604568 45.81543 44.5 46.919998 44.5C 48.02457 44.5 48.919998 43.604568 48.919998 42.5C 48.919998 41.395432 48.02457 40.5 46.919998 40.5C 45.81543 40.5 44.919998 41.395432 44.919998 42.5M 30 35L 54 35M 29 57L 13 57L 13 53L 26 53C 27.259029 53 28.444582 53.592777 29.200001 54.599998L 29.799999 55.400002C 30.027264 55.703018 30.06382 56.108429 29.894426 56.447212C 29.725035 56.785999 29.378773 57 29 57ZM 40 45C 40.276142 45 40.5 45.223858 40.5 45.5M 39.419998 45.5C 39.418095 45.352291 39.481606 45.2113 39.593491 45.114845C 39.705376 45.018394 39.854183 44.976353 40 45M 40 46C 39.723858 46 39.5 45.776142 39.5 45.5M 40.419998 45.5C 40.423187 45.747696 40.24453 45.960384 40 46M 36.419998 39C 36.696144 39 36.919998 39.223858 36.919998 39.5M 36 39.5C 36 39.223858 36.223858 39 36.5 39M 36.419998 40C 36.14386 40 35.919998 39.776142 35.919998 39.5M 36.919998 39.5C 36.919998 39.776142 36.696144 40 36.419998 40M 45 27.360001L 45 21L 39 21L 39 27.360001C 32.582558 28.88203 28.321817 34.968529 29.088022 41.519337C 29.854225 48.070148 35.404533 53.009109 42 53.009109C 48.595467 53.009109 54.145779 48.070148 54.91198 41.519337C 55.678185 34.968529 51.417446 28.88203 45 27.360001Z"></path></g></g></g><g id="g-root-tx_scriptsr_1cuw312trlptz-stroke" data-item-order="0" transform="translate(482, 506)"></g><g id="g-root-ic_net_qwj7metrlpms-stroke" data-item-order="0" transform="translate(254, 554)"><g id="ic_net_qwj7metrlpms-stroke" fill="none" stroke-linecap="round" stroke-linejoin="round" stroke-miterlimit="4" stroke="#8769fd" stroke-width="2" stroke-opacity="1"><g><path d="M 18.007999 13L 50.007999 13C 50.007999 13 54.007999 13 54.007999 17L 54.007999 51C 54.007999 51 54.007999 55 50.007999 55L 18.007999 55C 18.007999 55 14.007999 55 14.007999 51L 14.007999 17C 14.007999 17 14.007999 13 18.007999 13M 14 39L 21.310001 30.959999C 22.959269 29.298944 25.454391 28.810856 27.608 29.728001L 30.392 31.062C 32.6185 31.984388 35.16328 31.693317 37.124001 30.292L 40.875999 27.292C 42.987286 25.71822 45.348209 24.510715 47.859997 23.719999L 54 22M 24.007999 29.436001L 24.007999 55M 34.007999 31.532L 34.007999 55M 44.007999 25.326L 44.007999 55M 14.007999 39L 54.007999 39M 35.944 31L 54.007999 31M 14.007999 47L 54.007999 47"></path></g></g></g><g id="g-root-tx_scriptsa_8d8pitrlqmi-stroke" data-item-order="0" transform="translate(74, 554)"></g><g id="g-root-tx_fluxodet_24eomtrsqh8-stroke" data-item-order="0" transform="translate(104, 38)"></g><g id="g-root-tx_execuodo_m8ljditrlpu0-stroke" data-item-order="0" transform="translate(482, 566)"></g><g id="g-root-ic_info_detv86trsr2f-stroke" data-item-order="0" transform="translate(422, 122)"><g id="ic_info_detv86trsr2f-stroke" fill="none" stroke-linecap="round" stroke-linejoin="round" stroke-miterlimit="4" stroke="#4f91fc" stroke-width="2" stroke-opacity="1"><g><path d="M 44.5 56.5C 51.127399 56.5 56.5 51.127399 56.5 44.5C 56.5 37.872601 51.127399 32.5 44.5 32.5C 37.872601 32.5 32.5 37.872601 32.5 44.5C 32.5 51.127399 37.872601 56.5 44.5 56.5ZM 44.5 50.5L 44.5 44.5M 44.5 38.5C 44.099998 38.5 43.700001 38.900002 43.700001 39.299999C 43.700001 39.700001 44.099998 40.099998 44.5 40.099998M 44.5 38.5C 44.900002 38.5 45.299999 38.900002 45.299999 39.299999C 45.299999 39.700001 44.900002 40.099998 44.5 40.099998M 25.2694 52.897999L 11.5 56.5L 15.09202 42.6926M 25.2694 52.897999L 15.09202 42.6926M 25.2694 52.897999L 27.06542 51.097M 15.09202 42.6926L 44.027802 13.67682C 46.821602 10.875308 51.4114 10.675198 54.404598 13.67682C 57.198399 16.47834 57.198399 21.08074 54.404598 24.08238L 51.012199 27.48424M 43.229401 14.4772L 53.6208 24.86846M 45.025398 26.684019L 38.041 19.68022"></path></g></g></g></g></g></svg>