<?xml version="1.0" encoding="utf-8" standalone="yes"?>
<!DOCTYPE svg PUBLIC "-//W3C//DTD SVG 1.1//EN" "http://www.w3.org/Graphics/SVG/1.1/DTD/svg11.dtd">
<svg style="fill:none;stroke:none;fill-rule:evenodd;clip-rule:evenodd;stroke-linecap:round;stroke-linejoin:round;stroke-miterlimit:1.5;" version="1.1" xmlns="http://www.w3.org/2000/svg" xmlns:xlink="http://www.w3.org/1999/xlink" width="678" height="1098" viewBox="0 0 678 1098"><style class="text-font-style fontImports" data-font-family="Roboto">@import url(https://fonts.googleapis.com/css2?family=Roboto:wght@400;700&amp;amp;display=block);</style><rect id="" x="0" y="0" width="678" height="1098" style="fill: #2c2c2c;"></rect><g id="items" style="isolation: isolate"><g id="blend" style="mix-blend-mode: normal"><g id="g-root-tf_13ymc7aul9a15-fill" data-item-order="-1116666"><g id="tf_13ymc7aul9a15-fill-merged" stroke="none" fill="#2c2c2c" fill-opacity="1"><g><path d="M0 0 H678 V1098 H0 V0"></path></g></g></g><g id="g-root-sy_9_Vector_143m4w6ulj4eh-fill" data-item-order="-23238" transform="translate(212, 185)"></g><g id="g-root-sy_9_line_znsmrqulj56q-fill" data-item-order="-23234" transform="translate(212, 954)"></g><g id="g-root-sy_9_cu_91i346ulj56r-fill" data-item-order="-23231" transform="translate(209, 947)"><g id="sy_9_cu_91i346ulj56r-fill-merged" stroke="none" fill="#60436d" fill-opacity="1"><g><path d="M13 10C13 10 16 10 16 13C16 13 16 16 13 16C13 16 10 16 10 13C10 13 10 10 13 10"></path></g></g></g><g id="g-root-sy_8_cu_6hjyeulj2to-fill" data-item-order="-23227" transform="translate(209, 851)"><g id="sy_8_cu_6hjyeulj2to-fill-merged" stroke="none" fill="#69425a" fill-opacity="1"><g><path d="M13 10C13 10 16 10 16 13C16 13 16 16 13 16C13 16 10 16 10 13C10 13 10 10 13 10"></path></g></g></g><g id="g-root-sy_7_cu_1lw53k6ulj47h-fill" data-item-order="-23223" transform="translate(209, 755)"><g id="sy_7_cu_1lw53k6ulj47h-fill-merged" stroke="none" fill="#68403f" fill-opacity="1"><g><path d="M13 10C13 10 16 10 16 13C16 13 16 16 13 16C13 16 10 16 10 13C10 13 10 10 13 10"></path></g></g></g><g id="g-root-sy_6_cu_18lb29yulj2mm-fill" data-item-order="-23219" transform="translate(209, 659)"><g id="sy_6_cu_18lb29yulj2mm-fill-merged" stroke="none" fill="#5c4938" fill-opacity="1"><g><path d="M13 10C13 10 16 10 16 13C16 13 16 16 13 16C13 16 10 16 10 13C10 13 10 10 13 10"></path></g></g></g><g id="g-root-sy_5_cu_qu11s6ulj4zr-fill" data-item-order="-23215" transform="translate(209, 563)"><g id="sy_5_cu_qu11s6ulj4zr-fill-merged" stroke="none" fill="#54502f" fill-opacity="1"><g><path d="M13 10C13 10 16 10 16 13C16 13 16 16 13 16C13 16 10 16 10 13C10 13 10 10 13 10"></path></g></g></g><g id="g-root-sy_4_cu_dj70hyulj3ew-fill" data-item-order="-23211" transform="translate(209, 467)"><g id="sy_4_cu_dj70hyulj3ew-fill-merged" stroke="none" fill="#4b533a" fill-opacity="1"><g><path d="M13 10C13 10 16 10 16 13C16 13 16 16 13 16C13 16 10 16 10 13C10 13 10 10 13 10"></path></g></g></g><g id="g-root-sy_3_cu_93didiulj475-fill" data-item-order="-23207" transform="translate(209, 371)"><g id="sy_3_cu_93didiulj475-fill-merged" stroke="none" fill="#3b5649" fill-opacity="1"><g><path d="M13 10C13 10 16 10 16 13C16 13 16 16 13 16C13 16 10 16 10 13C10 13 10 10 13 10"></path></g></g></g><g id="g-root-sy_2_cu_1ly0itiulj37u-fill" data-item-order="-23203" transform="translate(209, 275)"><g id="sy_2_cu_1ly0itiulj37u-fill-merged" stroke="none" fill="#344e57" fill-opacity="1"><g><path d="M13 10C13 10 16 10 16 13C16 13 16 16 13 16C13 16 10 16 10 13C10 13 10 10 13 10"></path></g></g></g><g id="g-root-sy_1_cu_18mk0g6ulj4sr-fill" data-item-order="-23199" transform="translate(209, 179)"><g id="sy_1_cu_18mk0g6ulj4sr-fill-merged" stroke="none" fill="#3e4e69" fill-opacity="1"><g><path d="M13 10C13 10 16 10 16 13C16 13 16 16 13 16C13 16 10 16 10 13C10 13 10 10 13 10"></path></g></g></g><g id="g-root-tx_m4_1upwojqulkikr-fill" data-item-order="0" transform="translate(152, 458)"><g id="tx_m4_1upwojqulkikr-fill-merged" stroke="none" fill="#a6da37" fill-opacity="1"><g><text style="font: 20px &quot;Roboto&quot;, sans-serif; white-space: pre;" transform="translate(46, 22)" font-size="20px" font-family="'Roboto', sans-serif"><tspan x="-30.7" y="12" dominant-baseline="ideographic">M4</tspan></text></g></g></g><g id="g-root-tx_ingestor_18gb9l2ulkhdv-fill" data-item-order="0" transform="translate(260, 362)"><g id="tx_ingestor_18gb9l2ulkhdv-fill-merged" stroke="none" fill="#f4f4f4" fill-opacity="1"><g><text style="font: 20px &quot;Roboto&quot;, sans-serif; white-space: pre;" transform="translate(10, 22)" font-size="20px" font-family="'Roboto', sans-serif"><tspan x="2" y="12" dominant-baseline="ideographic">Ingestão requer ambiente configurado</tspan></text></g></g></g><g id="g-root-tx_datasetd_1q6yszqulki6i-fill" data-item-order="0" transform="translate(260, 446)"><g id="tx_datasetd_1q6yszqulki6i-fill-merged" stroke="none" fill="#f4f4f4" fill-opacity="1"><g><text style="font: 20px &quot;Roboto&quot;, sans-serif; white-space: pre;" transform="translate(10, 34)" font-size="20px" font-family="'Roboto', sans-serif"><tspan x="2" y="0" dominant-baseline="ideographic">Dataset depende de documentação </tspan><tspan x="2" y="24" dominant-baseline="ideographic">ingerida</tspan></text></g></g></g><g id="g-root-tx_m5_hv9o3qulkjk2-fill" data-item-order="0" transform="translate(152, 554)"><g id="tx_m5_hv9o3qulkjk2-fill-merged" stroke="none" fill="#ffe711" fill-opacity="1"><g><text style="font: 20px &quot;Roboto&quot;, sans-serif; white-space: pre;" transform="translate(46, 22)" font-size="20px" font-family="'Roboto', sans-serif"><tspan x="-30.7" y="12" dominant-baseline="ideographic">M5</tspan></text></g></g></g><g id="g-root-tx_m3_1hf2n9iulkgzw-fill" data-item-order="0" transform="translate(152, 362)"><g id="tx_m3_1hf2n9iulkgzw-fill-merged" stroke="none" fill="#43dd93" fill-opacity="1"><g><text style="font: 20px &quot;Roboto&quot;, sans-serif; white-space: pre;" transform="translate(46, 22)" font-size="20px" font-family="'Roboto', sans-serif"><tspan x="-30.7" y="12" dominant-baseline="ideographic">M3</tspan></text></g></g></g><g id="g-root-tx_pilotous_4gosauulkjyh-fill" data-item-order="0" transform="translate(260, 554)"><g id="tx_pilotous_4gosauulkjyh-fill-merged" stroke="none" fill="#f4f4f4" fill-opacity="1"><g><text style="font: 20px &quot;Roboto&quot;, sans-serif; white-space: pre;" transform="translate(10, 22)" font-size="20px" font-family="'Roboto', sans-serif"><tspan x="2" y="12" dominant-baseline="ideographic">Piloto usa perguntas do dataset</tspan></text></g></g></g><g id="g-root-tx_m6_v6q6h2ulkhz5-fill" data-item-order="0" transform="translate(152, 650)"><g id="tx_m6_v6q6h2ulkhz5-fill-merged" stroke="none" fill="#f79438" fill-opacity="1"><g><text style="font: 20px &quot;Roboto&quot;, sans-serif; white-space: pre;" transform="translate(46, 22)" font-size="20px" font-family="'Roboto', sans-serif"><tspan x="-30.7" y="12" dominant-baseline="ideographic">M6</tspan></text></g></g></g><g id="g-root-tx_setupsin_v4ur7qulkiys-fill" data-item-order="0" transform="translate(260, 266)"><g id="tx_setupsin_v4ur7qulkiys-fill-merged" stroke="none" fill="#f4f4f4" fill-opacity="1"><g><text style="font: 20px &quot;Roboto&quot;, sans-serif; white-space: pre;" transform="translate(10, 22)" font-size="20px" font-family="'Roboto', sans-serif"><tspan x="2" y="12" dominant-baseline="ideographic">Setup só inicia após aprovação</tspan></text></g></g></g><g id="g-root-tx_ajustesb_hs5ao6ulkidk-fill" data-item-order="0" transform="translate(260, 650)"><g id="tx_ajustesb_hs5ao6ulkidk-fill-merged" stroke="none" fill="#f4f4f4" fill-opacity="1"><g><text style="font: 20px &quot;Roboto&quot;, sans-serif; white-space: pre;" transform="translate(10, 22)" font-size="20px" font-family="'Roboto', sans-serif"><tspan x="2" y="12" dominant-baseline="ideographic">Ajustes baseados nos resultados do piloto</tspan></text></g></g></g><g id="g-root-tx_m7_18hk7raulkjk0-fill" data-item-order="0" transform="translate(152, 746)"><g id="tx_m7_18hk7raulkjk0-fill-merged" stroke="none" fill="#fb6762" fill-opacity="1"><g><text style="font: 20px &quot;Roboto&quot;, sans-serif; white-space: pre;" transform="translate(46, 22)" font-size="20px" font-family="'Roboto', sans-serif"><tspan x="-30.7" y="12" dominant-baseline="ideographic">M7</tspan></text></g></g></g><g id="g-root-tx_m2_143m4w6ulkikt-fill" data-item-order="0" transform="translate(152, 266)"><g id="tx_m2_143m4w6ulkikt-fill-merged" stroke="none" fill="#1ac3fb" fill-opacity="1"><g><text style="font: 20px &quot;Roboto&quot;, sans-serif; white-space: pre;" transform="translate(46, 22)" font-size="20px" font-family="'Roboto', sans-serif"><tspan x="-30.7" y="12" dominant-baseline="ideographic">M2</tspan></text></g></g></g><g id="g-root-tx_execuofi_18efubqulkidj-fill" data-item-order="0" transform="translate(260, 746)"><g id="tx_execuofi_18efubqulkidj-fill-merged" stroke="none" fill="#f4f4f4" fill-opacity="1"><g><text style="font: 20px &quot;Roboto&quot;, sans-serif; white-space: pre;" transform="translate(10, 22)" font-size="20px" font-family="'Roboto', sans-serif"><tspan x="2" y="12" dominant-baseline="ideographic">Execução final após validação</tspan></text></g></g></g><g id="g-root-tx_m8_1hd7806ulkhzj-fill" data-item-order="0" transform="translate(152, 842)"><g id="tx_m8_1hd7806ulkhzj-fill-merged" stroke="none" fill="#f366bb" fill-opacity="1"><g><text style="font: 20px &quot;Roboto&quot;, sans-serif; white-space: pre;" transform="translate(46, 22)" font-size="20px" font-family="'Roboto', sans-serif"><tspan x="-30.7" y="12" dominant-baseline="ideographic">M8</tspan></text></g></g></g><g id="g-root-tx_aprovaod_hu0pxiulkhdx-fill" data-item-order="0" transform="translate(260, 170)"><g id="tx_aprovaod_hu0pxiulkhdx-fill-merged" stroke="none" fill="#f4f4f4" fill-opacity="1"><g><text style="font: 20px &quot;Roboto&quot;, sans-serif; white-space: pre;" transform="translate(10, 22)" font-size="20px" font-family="'Roboto', sans-serif"><tspan x="2" y="12" dominant-baseline="ideographic">Aprovação depende do plano completo</tspan></text></g></g></g><g id="g-root-tx_relatrio_4pffieulj37x-fill" data-item-order="0" transform="translate(260, 938)"><g id="tx_relatrio_4pffieulj37x-fill-merged" stroke="none" fill="#f4f4f4" fill-opacity="1"><g><text style="font: 20px &quot;Roboto&quot;, sans-serif; white-space: pre;" transform="translate(10, 22)" font-size="20px" font-family="'Roboto', sans-serif"><tspan x="2" y="12" dominant-baseline="ideographic">Relatório sintetiza análises</tspan></text></g></g></g><g id="g-root-tx_m9_4ik7k6ulkiyu-fill" data-item-order="0" transform="translate(152, 938)"><g id="tx_m9_4ik7k6ulkiyu-fill-merged" stroke="none" fill="#cb68f9" fill-opacity="1"><g><text style="font: 20px &quot;Roboto&quot;, sans-serif; white-space: pre;" transform="translate(46, 22)" font-size="20px" font-family="'Roboto', sans-serif"><tspan x="-30.7" y="12" dominant-baseline="ideographic">M9</tspan></text></g></g></g><g id="g-root-tx_m1_qss3lyulkgzy-fill" data-item-order="0" transform="translate(152, 170)"><g id="tx_m1_qss3lyulkgzy-fill-merged" stroke="none" fill="#4f91fc" fill-opacity="1"><g><text style="font: 20px &quot;Roboto&quot;, sans-serif; white-space: pre;" transform="translate(46, 22)" font-size="20px" font-family="'Roboto', sans-serif"><tspan x="-30.7" y="12" dominant-baseline="ideographic">M1</tspan></text></g></g></g><g id="g-root-tx_cronogra_147czeuulj2f8-fill" data-item-order="0" transform="translate(14, 38)"><g id="tx_cronogra_147czeuulj2f8-fill-merged" stroke="none" fill="#f4f4f4" fill-opacity="1"><g><text style="font: bold 25px &quot;Roboto&quot;, sans-serif; white-space: pre;" transform="translate(316, 28)" font-weight="bold" font-size="25px" font-family="'Roboto', sans-serif"><tspan x="-302.79" y="14" dominant-baseline="ideographic">Cronograma do Projeto do Início ao Relatório Final</tspan></text></g></g></g><g id="g-root-tx_anlisede_1lz9gzqulj5dy-fill" data-item-order="0" transform="translate(260, 842)"><g id="tx_anlisede_1lz9gzqulj5dy-fill-merged" stroke="none" fill="#f4f4f4" fill-opacity="1"><g><text style="font: 20px &quot;Roboto&quot;, sans-serif; white-space: pre;" transform="translate(10, 22)" font-size="20px" font-family="'Roboto', sans-serif"><tspan x="2" y="12" dominant-baseline="ideographic">Análise depende dos dados coletados</tspan></text></g></g></g><g id="g-root-tf_13ymc7aul9a15-stroke" data-item-order="-1116666"></g><g id="g-root-sy_9_Vector_143m4w6ulj4eh-stroke" data-item-order="-23238" transform="translate(212, 185)"><g id="sy_9_Vector_143m4w6ulj4eh-stroke" fill="none" stroke-linecap="round" stroke-linejoin="round" stroke-miterlimit="4" stroke="#b7b7b7" stroke-width="2" stroke-opacity="1"><g><path d="M 10 772L 10 682M 10 676L 10 586M 10 580L 10 490M 10 484L 10 394M 10 388L 10 298M 10 292L 10 202M 10 196L 10 106M 10 100L 10 10"></path></g></g></g><g id="g-root-sy_9_line_znsmrqulj56q-stroke" data-item-order="-23234" transform="translate(212, 954)"><g id="sy_9_line_znsmrqulj56q-stroke" fill="none" stroke-linecap="round" stroke-linejoin="round" stroke-miterlimit="4" stroke="#b7b7b7" stroke-width="2" stroke-opacity="1"><g><path d="M 10 94L 10 10"></path><path d="M 3.5 88L 10 94.5L 16.5 88" stroke-dasharray="none"></path></g></g></g><g id="g-root-sy_9_cu_91i346ulj56r-stroke" data-item-order="-23231" transform="translate(209, 947)"><g id="sy_9_cu_91i346ulj56r-stroke" fill="none" stroke-linecap="round" stroke-linejoin="round" stroke-miterlimit="4" stroke="#cb68f9" stroke-width="2" stroke-opacity="1"><g><path d="M 13 10L 13 10C 13 10 16 10 16 13L 16 13C 16 13 16 16 13 16L 13 16C 13 16 10 16 10 13L 10 13C 10 13 10 10 13 10"></path></g></g><g id="sy_9_cu_91i346ulj56r-stroke" fill="none" stroke-linecap="round" stroke-linejoin="round" stroke-miterlimit="4" stroke="#cb68f9" stroke-width="2" stroke-opacity="1"><g><path d="M 37 13L 16 13"></path></g></g></g><g id="g-root-sy_8_cu_6hjyeulj2to-stroke" data-item-order="-23227" transform="translate(209, 851)"><g id="sy_8_cu_6hjyeulj2to-stroke" fill="none" stroke-linecap="round" stroke-linejoin="round" stroke-miterlimit="4" stroke="#f366bb" stroke-width="2" stroke-opacity="1"><g><path d="M 13 10L 13 10C 13 10 16 10 16 13L 16 13C 16 13 16 16 13 16L 13 16C 13 16 10 16 10 13L 10 13C 10 13 10 10 13 10"></path></g></g><g id="sy_8_cu_6hjyeulj2to-stroke" fill="none" stroke-linecap="round" stroke-linejoin="round" stroke-miterlimit="4" stroke="#f366bb" stroke-width="2" stroke-opacity="1"><g><path d="M 37 13L 16 13"></path></g></g></g><g id="g-root-sy_7_cu_1lw53k6ulj47h-stroke" data-item-order="-23223" transform="translate(209, 755)"><g id="sy_7_cu_1lw53k6ulj47h-stroke" fill="none" stroke-linecap="round" stroke-linejoin="round" stroke-miterlimit="4" stroke="#fb6762" stroke-width="2" stroke-opacity="1"><g><path d="M 13 10L 13 10C 13 10 16 10 16 13L 16 13C 16 13 16 16 13 16L 13 16C 13 16 10 16 10 13L 10 13C 10 13 10 10 13 10"></path></g></g><g id="sy_7_cu_1lw53k6ulj47h-stroke" fill="none" stroke-linecap="round" stroke-linejoin="round" stroke-miterlimit="4" stroke="#fb6762" stroke-width="2" stroke-opacity="1"><g><path d="M 37 13L 16 13"></path></g></g></g><g id="g-root-sy_6_cu_18lb29yulj2mm-stroke" data-item-order="-23219" transform="translate(209, 659)"><g id="sy_6_cu_18lb29yulj2mm-stroke" fill="none" stroke-linecap="round" stroke-linejoin="round" stroke-miterlimit="4" stroke="#f79438" stroke-width="2" stroke-opacity="1"><g><path d="M 13 10L 13 10C 13 10 16 10 16 13L 16 13C 16 13 16 16 13 16L 13 16C 13 16 10 16 10 13L 10 13C 10 13 10 10 13 10"></path></g></g><g id="sy_6_cu_18lb29yulj2mm-stroke" fill="none" stroke-linecap="round" stroke-linejoin="round" stroke-miterlimit="4" stroke="#f79438" stroke-width="2" stroke-opacity="1"><g><path d="M 37 13L 16 13"></path></g></g></g><g id="g-root-sy_5_cu_qu11s6ulj4zr-stroke" data-item-order="-23215" transform="translate(209, 563)"><g id="sy_5_cu_qu11s6ulj4zr-stroke" fill="none" stroke-linecap="round" stroke-linejoin="round" stroke-miterlimit="4" stroke="#ffe711" stroke-width="2" stroke-opacity="1"><g><path d="M 13 10L 13 10C 13 10 16 10 16 13L 16 13C 16 13 16 16 13 16L 13 16C 13 16 10 16 10 13L 10 13C 10 13 10 10 13 10"></path></g></g><g id="sy_5_cu_qu11s6ulj4zr-stroke" fill="none" stroke-linecap="round" stroke-linejoin="round" stroke-miterlimit="4" stroke="#ffe711" stroke-width="2" stroke-opacity="1"><g><path d="M 37 13L 16 13"></path></g></g></g><g id="g-root-sy_4_cu_dj70hyulj3ew-stroke" data-item-order="-23211" transform="translate(209, 467)"><g id="sy_4_cu_dj70hyulj3ew-stroke" fill="none" stroke-linecap="round" stroke-linejoin="round" stroke-miterlimit="4" stroke="#a6da37" stroke-width="2" stroke-opacity="1"><g><path d="M 13 10L 13 10C 13 10 16 10 16 13L 16 13C 16 13 16 16 13 16L 13 16C 13 16 10 16 10 13L 10 13C 10 13 10 10 13 10"></path></g></g><g id="sy_4_cu_dj70hyulj3ew-stroke" fill="none" stroke-linecap="round" stroke-linejoin="round" stroke-miterlimit="4" stroke="#a6da37" stroke-width="2" stroke-opacity="1"><g><path d="M 37 13L 16 13"></path></g></g></g><g id="g-root-sy_3_cu_93didiulj475-stroke" data-item-order="-23207" transform="translate(209, 371)"><g id="sy_3_cu_93didiulj475-stroke" fill="none" stroke-linecap="round" stroke-linejoin="round" stroke-miterlimit="4" stroke="#43dd93" stroke-width="2" stroke-opacity="1"><g><path d="M 13 10L 13 10C 13 10 16 10 16 13L 16 13C 16 13 16 16 13 16L 13 16C 13 16 10 16 10 13L 10 13C 10 13 10 10 13 10"></path></g></g><g id="sy_3_cu_93didiulj475-stroke" fill="none" stroke-linecap="round" stroke-linejoin="round" stroke-miterlimit="4" stroke="#43dd93" stroke-width="2" stroke-opacity="1"><g><path d="M 37 13L 16 13"></path></g></g></g><g id="g-root-sy_2_cu_1ly0itiulj37u-stroke" data-item-order="-23203" transform="translate(209, 275)"><g id="sy_2_cu_1ly0itiulj37u-stroke" fill="none" stroke-linecap="round" stroke-linejoin="round" stroke-miterlimit="4" stroke="#1ac3fb" stroke-width="2" stroke-opacity="1"><g><path d="M 13 10L 13 10C 13 10 16 10 16 13L 16 13C 16 13 16 16 13 16L 13 16C 13 16 10 16 10 13L 10 13C 10 13 10 10 13 10"></path></g></g><g id="sy_2_cu_1ly0itiulj37u-stroke" fill="none" stroke-linecap="round" stroke-linejoin="round" stroke-miterlimit="4" stroke="#1ac3fb" stroke-width="2" stroke-opacity="1"><g><path d="M 37 13L 16 13"></path></g></g></g><g id="g-root-sy_1_cu_18mk0g6ulj4sr-stroke" data-item-order="-23199" transform="translate(209, 179)"><g id="sy_1_cu_18mk0g6ulj4sr-stroke" fill="none" stroke-linecap="round" stroke-linejoin="round" stroke-miterlimit="4" stroke="#4f91fc" stroke-width="2" stroke-opacity="1"><g><path d="M 13 10L 13 10C 13 10 16 10 16 13L 16 13C 16 13 16 16 13 16L 13 16C 13 16 10 16 10 13L 10 13C 10 13 10 10 13 10"></path></g></g><g id="sy_1_cu_18mk0g6ulj4sr-stroke" fill="none" stroke-linecap="round" stroke-linejoin="round" stroke-miterlimit="4" stroke="#4f91fc" stroke-width="2" stroke-opacity="1"><g><path d="M 37 13L 16 13"></path></g></g></g><g id="g-root-tx_m4_1upwojqulkikr-stroke" data-item-order="0" transform="translate(152, 458)"></g><g id="g-root-tx_ingestor_18gb9l2ulkhdv-stroke" data-item-order="0" transform="translate(260, 362)"></g><g id="g-root-tx_datasetd_1q6yszqulki6i-stroke" data-item-order="0" transform="translate(260, 446)"></g><g id="g-root-tx_m5_hv9o3qulkjk2-stroke" data-item-order="0" transform="translate(152, 554)"></g><g id="g-root-tx_m3_1hf2n9iulkgzw-stroke" data-item-order="0" transform="translate(152, 362)"></g><g id="g-root-tx_pilotous_4gosauulkjyh-stroke" data-item-order="0" transform="translate(260, 554)"></g><g id="g-root-tx_m6_v6q6h2ulkhz5-stroke" data-item-order="0" transform="translate(152, 650)"></g><g id="g-root-tx_setupsin_v4ur7qulkiys-stroke" data-item-order="0" transform="translate(260, 266)"></g><g id="g-root-tx_ajustesb_hs5ao6ulkidk-stroke" data-item-order="0" transform="translate(260, 650)"></g><g id="g-root-tx_m7_18hk7raulkjk0-stroke" data-item-order="0" transform="translate(152, 746)"></g><g id="g-root-tx_m2_143m4w6ulkikt-stroke" data-item-order="0" transform="translate(152, 266)"></g><g id="g-root-tx_execuofi_18efubqulkidj-stroke" data-item-order="0" transform="translate(260, 746)"></g><g id="g-root-tx_m8_1hd7806ulkhzj-stroke" data-item-order="0" transform="translate(152, 842)"></g><g id="g-root-tx_aprovaod_hu0pxiulkhdx-stroke" data-item-order="0" transform="translate(260, 170)"></g><g id="g-root-tx_relatrio_4pffieulj37x-stroke" data-item-order="0" transform="translate(260, 938)"></g><g id="g-root-tx_m9_4ik7k6ulkiyu-stroke" data-item-order="0" transform="translate(152, 938)"></g><g id="g-root-tx_m1_qss3lyulkgzy-stroke" data-item-order="0" transform="translate(152, 170)"></g><g id="g-root-tx_cronogra_147czeuulj2f8-stroke" data-item-order="0" transform="translate(14, 38)"></g><g id="g-root-tx_anlisede_1lz9gzqulj5dy-stroke" data-item-order="0" transform="translate(260, 842)"></g></g></g></svg>